#Comment line ignore any data following # character 
#Hierarchical Translation and Rotation (.htr) file 
[Header]	
#Header keywords are followed by a single value 
FileType HTR		#Single word string
DataType HTRS		#Translation followed by rotation and scale data
FileVersion 1		#integer
NumSegments 25		#integer
NumFrames 4		#integer
DataFrameRate 30		#integer, data frame rate in this file
EulerRotationOrder ZYX
CalibrationUnits mm
RotationUnits Degrees
GlobalAxisofGravity Y
BoneLengthAxis Y
ScaleFactor 1.00
[SegmentNames&Hierarchy]
#CHILD	PARENT
BN_Tick_Root GLOBAL
BN_Torso BN_Tick_Root
BN_L_Leg_Front01 BN_Torso
BN_L_Leg_Rear01 BN_Torso
BN_MetalTop BN_Torso
BN_Neck BN_Torso
BN_R_Leg_Front01 BN_Torso
BN_R_Leg_Rear01 BN_Torso
BN_Sack BN_Torso
BN_L_Leg_Front02 BN_L_Leg_Front01
BN_L_Leg_Front03 BN_L_Leg_Front02
BN_L_Leg_Rear02 BN_L_Leg_Rear01
BN_L_Leg_Rear03 BN_L_Leg_Rear02
BN_Head BN_Neck
BN_Needle BN_Head
BN_R_Leg_Front02 BN_R_Leg_Front01
BN_R_Leg_Front03 BN_R_Leg_Front02
BN_R_Leg_Rear02 BN_R_Leg_Rear01
BN_R_Leg_Rear03 BN_R_Leg_Rear02
BN_SackDef01 BN_Sack
BN_SackDef02 BN_Sack
BN_SackDef03 BN_Sack
BN_SackDef04 BN_Sack
BN_SackDef05 BN_Sack
BN_SackDef06 BN_Sack
[BasePosition]
#SegmentName Tx, Ty, Tz, Rx, Ry, Rz, BoneLength
BN_Tick_Root 0.000000 0.000000 0.000000 -90.000000 0.000000 0.000000 10.000000 
BN_Torso 0.000000 0.000000 0.000000 0.000000 0.000000 0.000000 10.000000 
BN_L_Leg_Front01 0.000000 0.000000 0.000000 0.000000 0.000000 0.000000 10.000000 
BN_L_Leg_Rear01 0.000000 0.000000 0.000000 0.000000 0.000000 0.000000 10.000000 
BN_MetalTop 0.000000 0.000000 0.000000 0.000000 0.000000 0.000000 10.000000 
BN_Neck 0.000000 0.000000 0.000000 0.000000 0.000000 0.000000 10.000000 
BN_R_Leg_Front01 0.000000 0.000000 0.000000 0.000000 0.000000 0.000000 10.000000 
BN_R_Leg_Rear01 0.000000 0.000000 0.000000 0.000000 0.000000 0.000000 10.000000 
BN_Sack 0.000000 0.000000 0.000000 0.000000 0.000000 0.000000 10.000000 
BN_L_Leg_Front02 0.000000 0.000000 0.000000 0.000000 0.000000 0.000000 10.000000 
BN_L_Leg_Front03 0.000000 0.000000 0.000000 0.000000 0.000000 0.000000 10.000000 
BN_L_Leg_Rear02 0.000000 0.000000 0.000000 0.000000 0.000000 0.000000 10.000000 
BN_L_Leg_Rear03 0.000000 0.000000 0.000000 0.000000 0.000000 0.000000 10.000000 
BN_Head 0.000000 0.000000 0.000000 0.000000 0.000000 0.000000 10.000000 
BN_Needle 0.000000 0.000000 0.000000 0.000000 0.000000 0.000000 10.000000 
BN_R_Leg_Front02 0.000000 0.000000 0.000000 0.000000 0.000000 0.000000 10.000000 
BN_R_Leg_Front03 0.000000 0.000000 0.000000 0.000000 0.000000 0.000000 10.000000 
BN_R_Leg_Rear02 0.000000 0.000000 0.000000 0.000000 0.000000 0.000000 10.000000 
BN_R_Leg_Rear03 0.000000 0.000000 0.000000 0.000000 0.000000 0.000000 10.000000 
BN_SackDef01 0.000000 0.000000 0.000000 0.000000 0.000000 0.000000 10.000000 
BN_SackDef02 0.000000 0.000000 0.000000 0.000000 0.000000 0.000000 10.000000 
BN_SackDef03 0.000000 0.000000 0.000000 0.000000 0.000000 0.000000 10.000000 
BN_SackDef04 0.000000 0.000000 0.000000 0.000000 0.000000 0.000000 10.000000 
BN_SackDef05 0.000000 0.000000 0.000000 0.000000 0.000000 0.000000 10.000000 
BN_SackDef06 0.000000 0.000000 0.000000 0.000000 0.000000 0.000000 10.000000 
#Beginning of Data. Separated by tabs
#Fr	Tx	Ty	Tz	Rx	Ry	Rz	SF
[BN_Tick_Root]
59 0.000000 0.000000 0.000000 0.000000 0.000000 -0.000020 0.000000
60 0.000000 0.000000 0.000000 0.000000 0.000000 -0.000020 0.000000
61 0.000000 0.000000 0.000000 0.000000 0.000000 -0.000020 0.000000
62 0.000000 0.000000 0.000000 0.000000 0.000000 -0.000020 0.000000
[BN_Torso]
59 14.809943 31.811003 213.415298 -24.196352 -3.933924 -7.730779 216.280746
60 14.817976 35.584370 210.120514 -23.609976 -3.852999 -6.962465 213.626907
61 14.826010 39.357731 206.825745 -23.022573 -3.779925 -6.193377 211.058609
62 14.834044 43.130928 203.531128 -22.434361 -3.714736 -5.423731 208.579117
[BN_L_Leg_Front01]
59 -68.477791 10.734189 -26.804373 -77.893654 46.050880 139.494110 74.316254
60 -68.477791 10.734189 -26.804373 -77.325699 46.349693 140.014267 74.316254
61 -68.477791 10.734189 -26.804373 -76.750687 46.644897 140.541534 74.316254
62 -68.477791 10.734189 -26.804373 -76.168625 46.936409 141.075989 74.316254
[BN_L_Leg_Rear01]
59 -72.133743 -73.994843 -18.268616 17.347374 67.509003 -161.453400 104.939293
60 -72.133743 -73.994843 -18.268616 20.254360 66.593315 -159.228928 104.939293
61 -72.133743 -73.994843 -18.268616 22.968271 65.636070 -157.199966 104.939293
62 -72.133743 -73.994843 -18.268616 25.503004 64.642433 -155.352539 104.939293
[BN_MetalTop]
59 0.000008 13.737477 26.403606 92.251366 -17.585709 -97.417938 29.763546
60 0.000008 13.737477 26.403606 92.251366 -17.585709 -97.417938 29.763546
61 0.000008 13.737477 26.403606 92.251366 -17.585709 -97.417938 29.763546
62 0.000008 13.737477 26.403606 92.251350 -17.585773 -97.417938 29.763546
[BN_Neck]
59 0.000014 95.233284 10.002091 -89.999672 -65.297531 89.999657 95.757088
60 0.000014 95.233284 10.002091 -89.999672 -65.297531 89.999657 95.757088
61 0.000014 95.233284 10.002091 -89.999672 -65.297531 89.999657 95.757088
62 0.000014 95.233284 10.002091 -89.999672 -65.297531 89.999657 95.757088
[BN_R_Leg_Front01]
59 68.477768 10.734107 -26.804314 71.783272 37.066414 65.412231 74.316193
60 68.477768 10.734107 -26.804314 72.042274 37.959473 64.108208 74.316193
61 68.477768 10.734107 -26.804314 72.278374 38.857204 62.792831 74.316193
62 68.477768 10.734107 -26.804314 72.490593 39.758694 61.465595 74.316193
[BN_R_Leg_Rear01]
59 72.133751 -73.994873 -18.268644 34.971039 67.704330 65.241165 104.939331
60 72.133751 -73.994873 -18.268644 27.433140 69.552040 54.722149 104.939331
61 72.133751 -73.994873 -18.268644 21.781702 70.656982 47.209309 104.939331
62 72.133751 -73.994873 -18.268644 15.738785 71.487045 39.528728 104.939331
[BN_Sack]
59 -0.000000 -78.024918 33.657791 91.379883 -11.014522 -97.199577 84.974907
60 -0.000000 -78.024918 33.657791 91.379875 -11.014523 -97.199577 84.974907
61 -0.000000 -78.024918 33.657791 91.379875 -11.014523 -97.199577 84.974907
62 -0.000000 -78.024918 33.657791 91.379875 -11.014523 -97.199577 84.974907
[BN_L_Leg_Front02]
59 142.805023 -0.000015 -0.000104 -0.065883 0.816702 -141.768021 142.805023
60 142.805023 -0.000015 -0.000104 -0.092400 0.845470 -144.662292 142.805023
61 142.805023 -0.000015 -0.000104 -0.120336 0.872863 -147.556595 142.805023
62 142.805023 -0.000015 -0.000104 -0.150572 0.901783 -150.635544 142.805023
[BN_L_Leg_Front03]
59 124.143021 -0.000045 0.000007 0.351786 -0.270893 143.403488 124.143021
60 124.143021 -0.000045 0.000007 0.351283 -0.259421 145.074402 124.143021
61 124.143021 -0.000045 0.000007 0.351115 -0.247938 146.745667 124.143021
62 124.143021 -0.000045 0.000007 0.351281 -0.236457 148.416519 124.143021
[BN_L_Leg_Rear02]
59 139.939041 0.000075 -0.000022 0.091959 -0.217383 90.692245 139.939041
60 139.939041 0.000075 -0.000022 0.091600 -0.217535 90.881805 139.939041
61 139.939041 0.000075 -0.000022 0.091240 -0.217687 91.071373 139.939041
62 139.939041 0.000075 -0.000022 0.090879 -0.217837 91.260918 139.939041
[BN_L_Leg_Rear03]
59 142.839615 0.000179 -0.000060 0.000380 -0.002316 -108.630363 142.839615
60 142.839615 0.000179 -0.000060 0.000385 -0.002316 -108.861252 142.839615
61 142.839615 0.000179 -0.000060 0.000389 -0.002315 -109.092140 142.839615
62 142.839615 0.000179 -0.000060 0.000394 -0.002314 -109.322998 142.839615
[BN_Head]
59 57.062447 -0.000030 0.000000 -6.164883 15.682087 -8.863753 57.062447
60 57.062447 -0.000030 0.000000 -6.832446 16.112707 -8.407803 57.062447
61 57.062447 -0.000030 0.000000 -7.497943 16.548428 -7.956073 57.062447
62 57.062447 -0.000030 0.000000 -8.161283 16.989090 -7.508673 57.062447
[BN_Needle]
59 33.915161 69.677544 -0.000060 0.000003 0.000030 87.896805 77.493217
60 33.915161 69.677544 -0.000060 0.000003 0.000030 87.896805 77.493217
61 33.915161 69.677544 -0.000060 0.000003 0.000030 87.896805 77.493217
62 33.915161 69.677544 -0.000060 0.000003 0.000030 87.896805 77.493217
[BN_R_Leg_Front02]
59 142.804947 -0.000060 0.000060 -0.102620 0.545178 116.528099 142.804947
60 142.804947 -0.000060 0.000060 -0.089013 0.576526 119.321968 142.804947
61 142.804947 -0.000060 0.000060 -0.073894 0.607172 122.115860 142.804947
62 142.804947 -0.000060 0.000060 -0.056589 0.637646 125.045464 142.804947
[BN_R_Leg_Front03]
59 124.143005 -0.000060 -0.000156 -0.353001 -0.369931 -124.875938 124.143005
60 124.143005 -0.000060 -0.000156 -0.352194 -0.357349 -127.223534 124.143005
61 124.143005 -0.000060 -0.000156 -0.351902 -0.344738 -129.572113 124.143005
62 124.143005 -0.000060 -0.000156 -0.352128 -0.332132 -131.919601 124.143005
[BN_R_Leg_Rear02]
59 139.939011 -0.000149 0.000015 0.033264 -0.247002 -129.641785 139.939011
60 139.939011 -0.000149 0.000015 0.043180 -0.270479 -131.714920 139.939011
61 139.939011 -0.000149 0.000015 0.020209 -0.245755 -125.634666 139.939011
62 139.939011 -0.000149 0.000015 0.003152 -0.255016 -119.996056 139.939011
[BN_R_Leg_Rear03]
59 142.839417 0.000075 0.000119 0.002089 -0.001071 144.268219 142.839417
60 142.839417 0.000075 0.000119 0.002077 -0.001094 145.575089 142.839417
61 142.839417 0.000075 0.000119 0.002115 -0.001021 141.530441 142.839417
62 142.839417 0.000075 0.000119 0.002149 -0.000945 137.485962 142.839417
[BN_SackDef01]
59 249.782272 -3.760844 42.949425 -128.408218 -44.374973 -11.740845 253.475800
60 249.782272 -3.760844 42.949425 -128.408218 -44.374973 -11.740845 253.475800
61 249.782272 -3.760844 42.949425 -128.408218 -44.374973 -11.740845 253.475800
62 249.782272 -3.760844 42.949425 -128.408218 -44.374973 -11.740845 253.475800
[BN_SackDef02]
59 138.789795 -62.131748 45.674385 32.077126 -27.375721 -88.781525 158.773758
60 138.789795 -62.131748 45.674385 32.077126 -27.375721 -88.781525 158.773758
61 138.789795 -62.131748 45.674385 32.077126 -27.375721 -88.781525 158.773758
62 138.789795 -62.131748 45.674385 32.077126 -27.375721 -88.781525 158.773758
[BN_SackDef03]
59 249.782272 -3.760785 -42.949661 18.144459 44.375008 -11.740894 253.475845
60 249.782272 -3.760785 -42.949661 18.144459 44.375008 -11.740894 253.475845
61 249.782272 -3.760785 -42.949661 18.144459 44.375008 -11.740894 253.475845
62 249.782272 -3.760785 -42.949661 18.144459 44.375008 -11.740894 253.475845
[BN_SackDef04]
59 138.789780 -62.131645 -45.674473 146.059982 27.375723 -88.781555 158.773743
60 138.789780 -62.131645 -45.674473 146.059982 27.375723 -88.781555 158.773743
61 138.789780 -62.131645 -45.674473 146.059982 27.375723 -88.781555 158.773743
62 138.789780 -62.131645 -45.674473 146.059982 27.375723 -88.781555 158.773743
[BN_SackDef05]
59 118.790161 46.167137 -63.831196 0.155741 51.314110 90.605110 142.537460
60 118.790161 46.167137 -63.831196 0.155741 51.314110 90.605110 142.537460
61 118.790161 46.167137 -63.831196 0.155741 51.314110 90.605110 142.537460
62 118.790161 46.167137 -63.831196 0.155741 51.314110 90.605110 142.537460
[BN_SackDef06]
59 118.790207 46.167194 63.831219 152.058487 -51.314072 90.605019 142.537537
60 118.790207 46.167194 63.831219 152.058487 -51.314072 90.605019 142.537537
61 118.790207 46.167194 63.831219 152.058487 -51.314072 90.605019 142.537537
62 118.790207 46.167194 63.831219 152.058487 -51.314072 90.605019 142.537537
